<?xml version="1.0" encoding="us-ascii" standalone="no"?><svg xmlns="http://www.w3.org/2000/svg" xmlns:xlink="http://www.w3.org/1999/xlink" contentStyleType="text/css" height="238px" preserveAspectRatio="none" style="width:980px;height:238px;background:#FFFFFF;" version="1.1" viewBox="0 0 980 238" width="980px" zoomAndPan="magnify"><defs/><g><!--cluster ETL Pipeline--><g id="cluster_ETL Pipeline"><path d="M152.5,42 L250.5,42 A3.75,3.75 0 0 1 253,44.5 L260,64.2969 L779.5,64.2969 A2.5,2.5 0 0 1 782,66.7969 L782,138.5 A2.5,2.5 0 0 1 779.5,141 L152.5,141 A2.5,2.5 0 0 1 150,138.5 L150,44.5 A2.5,2.5 0 0 1 152.5,42 " fill="none" style="stroke:#000000;stroke-width:1.5;"/><line style="stroke:#000000;stroke-width:1.5;" x1="150" x2="260" y1="64.2969" y2="64.2969"/><text fill="#000000" font-family="sans-serif" font-size="14" font-weight="bold" lengthAdjust="spacing" textLength="97" x="154" y="56.9951">ETL Pipeline</text></g><!--entity extract--><g id="elem_extract"><ellipse cx="192.5" cy="93" fill="#F1F1F1" rx="12" ry="12" style="stroke:#181818;stroke-width:0.5;"/><line style="stroke:#181818;stroke-width:0.5;" x1="180.5" x2="204.5" y1="107" y2="107"/><text fill="#000000" font-family="sans-serif" font-size="14" lengthAdjust="spacing" textLength="53" x="166" y="121.9951">Extract</text></g><!--entity transform--><g id="elem_transform"><ellipse cx="475.5" cy="93" fill="#F1F1F1" rx="12" ry="12" style="stroke:#181818;stroke-width:0.5;"/><line style="stroke:#181818;stroke-width:0.5;" x1="463.5" x2="487.5" y1="107" y2="107"/><text fill="#000000" font-family="sans-serif" font-size="14" lengthAdjust="spacing" textLength="74" x="438.5" y="121.9951">Transform</text></g><!--entity load--><g id="elem_load"><ellipse cx="749" cy="93" fill="#F1F1F1" rx="12" ry="12" style="stroke:#181818;stroke-width:0.5;"/><line style="stroke:#181818;stroke-width:0.5;" x1="737" x2="761" y1="107" y2="107"/><text fill="#000000" font-family="sans-serif" font-size="14" lengthAdjust="spacing" textLength="34" x="732" y="121.9951">Load</text></g><!--entity csv--><g id="elem_csv"><path d="M17,8.5 L17,39.7969 A2.5,2.5 0 0 0 19.5,42.2969 L92.5,42.2969 A2.5,2.5 0 0 0 95,39.7969 L95,16 L85,6 L19.5,6 A2.5,2.5 0 0 0 17,8.5 " fill="#F1F1F1" style="stroke:#181818;stroke-width:0.5;"/><path d="M85,6 L85,13.5 A2.5,2.5 0 0 0 87.5,16 L95,16 " fill="#F1F1F1" style="stroke:#181818;stroke-width:0.5;"/><text fill="#000000" font-family="sans-serif" font-size="14" lengthAdjust="spacing" textLength="58" x="27" y="28.9951">CSV File</text></g><!--entity web--><g id="elem_web"><ellipse cx="56" cy="93" fill="#F1F1F1" rx="12" ry="12" style="stroke:#181818;stroke-width:0.5;"/><line style="stroke:#181818;stroke-width:0.5;" x1="44" x2="68" y1="107" y2="107"/><text fill="#000000" font-family="sans-serif" font-size="14" lengthAdjust="spacing" textLength="100" x="6" y="121.9951">Web Scraping</text></g><!--entity db--><g id="elem_db"><path d="M12,170.5 C12,160.5 56,160.5 56,160.5 C56,160.5 100,160.5 100,170.5 L100,195.7969 C100,205.7969 56,205.7969 56,205.7969 C56,205.7969 12,205.7969 12,195.7969 L12,170.5 " fill="#F1F1F1" style="stroke:#181818;stroke-width:0.5;"/><path d="M12,170.5 C12,180.5 56,180.5 56,180.5 C56,180.5 100,180.5 100,170.5 " fill="none" style="stroke:#181818;stroke-width:0.5;"/><text fill="#000000" font-family="sans-serif" font-size="14" lengthAdjust="spacing" textLength="68" x="22" y="197.4951">Database</text></g><!--entity warehouse--><g id="elem_warehouse"><path d="M826,88.5 C826,78.5 894.5,78.5 894.5,78.5 C894.5,78.5 963,78.5 963,88.5 L963,113.7969 C963,123.7969 894.5,123.7969 894.5,123.7969 C894.5,123.7969 826,123.7969 826,113.7969 L826,88.5 " fill="#F1F1F1" style="stroke:#181818;stroke-width:0.5;"/><path d="M826,88.5 C826,98.5 894.5,98.5 894.5,98.5 C894.5,98.5 963,98.5 963,88.5 " fill="none" style="stroke:#181818;stroke-width:0.5;"/><text fill="#000000" font-family="sans-serif" font-size="14" lengthAdjust="spacing" textLength="117" x="836" y="115.4951">Data Warehouse</text></g><g id="elem_GMN16"><path d="M279,160.5 L279,231.0313 A0,0 0 0 0 279,231.0313 L672,231.0313 A0,0 0 0 0 672,231.0313 L672,170.5 L662,160.5 L479.5,160.5 L475.5,125.121 L471.5,160.5 L279,160.5 A0,0 0 0 0 279,160.5 " fill="#FEFFDD" style="stroke:#181818;stroke-width:0.5;"/><path d="M662,160.5 L662,170.5 L672,170.5 L662,160.5 " fill="#FEFFDD" style="stroke:#181818;stroke-width:0.5;"/><text fill="#000000" font-family="sans-serif" font-size="13" lengthAdjust="spacing" textLength="185" x="285" y="177.5669">- Select all required columns.</text><text fill="#000000" font-family="sans-serif" font-size="13" lengthAdjust="spacing" textLength="284" x="285" y="192.6997">- Retain one record for each duplicate entry.</text><text fill="#000000" font-family="sans-serif" font-size="13" lengthAdjust="spacing" textLength="372" x="285" y="207.8325">- Populate empty fields and ensure consistent data types.</text><text fill="#000000" font-family="sans-serif" font-size="13" lengthAdjust="spacing" textLength="326" x="285" y="222.9653">- Convert currency to float for easier manipulation.</text></g><!--link db to extract--><g id="link_db_extract"><path d="M94.1088,160.3761 C116.814,146.5337 145.298,129.168 165.584,116.8 " fill="none" id="db-extract" style="stroke:#181818;stroke-width:1.0;"/></g><!--link csv to extract--><g id="link_csv_extract"><path d="M88.5343,42.053 C111.983,55.477 143.593,73.574 165.578,86.16 " fill="none" id="csv-extract" style="stroke:#181818;stroke-width:1.0;"/></g><!--link web to extract--><g id="link_web_extract"><path d="M106.319,101 C126.562,101 149.143,101 165.967,101 " fill="none" id="web-extract" style="stroke:#181818;stroke-width:1.0;"/></g><!--link extract to transform--><g id="link_extract_transform"><path d="M219.432,101 C269.703,101 380.521,101 438.124,101 " fill="none" id="extract-transform" style="stroke:#181818;stroke-width:1.0;"/></g><!--link transform to load--><g id="link_transform_load"><path d="M512.553,101 C572.27,101 689.354,101 731.988,101 " fill="none" id="transform-load" style="stroke:#181818;stroke-width:1.0;"/></g><!--link load to warehouse--><g id="link_load_warehouse"><path d="M766.182,101 C780.915,101 803.703,101 825.95,101 " fill="none" id="load-warehouse" style="stroke:#181818;stroke-width:1.0;"/></g><!--SRC=[NL91RW8n3Bpd5HPt-0HjJnnGgShPctWXQZP97IzqLVNlTS92eNjOZJtZZ3n9e5v04h0_70MSPxBYKpGce_t00y7Y-Mq3Mvyf-4WB-3QW7qNnCYdt9OnM5e05w88V-3V6MFh4GrF8jNhGR1AwHWS5viUOtWUrNU_UuKLHesmvcQj-JntiB6FsyT38CtN6eM27HUUUPjGervb_5EoHwPZ6MN2-LghhOBcyRQ6EzwLwt9Tc1hNtjzKDrNRRflvgSMSJav06dY7r3u4iOKT1mmSC0PW-HxqA1pQ5SOXbrGIl9EWZf4Wgi8aTw2mGsYEuCGTlKO_Mc7YwwBSfZw7rXgp9zPw2Au3HgQYCJ7fwBBw8Za1D2MJAD7kjKpmH2zYHcQATwXlfTHsPFOidXW6ZRnRwObPwGGxgThy0]--></g></svg>